<svg xmlns="http://www.w3.org/2000/svg" width="78.236" height="50" viewBox="0 0 78.236 50"><defs><style>.a{fill:#cfdd32;}.b{fill:#fff;}</style></defs><path class="a" d="M63.6,53v2.019l4.944,2.854L57.434,64.286a4.106,4.106,0,0,1-4.094,0l-3.771-2.177v2.019l2.9,1.673a5.859,5.859,0,0,0,5.843,0L70.73,58.629V57.115Z" transform="translate(-34.639 -37.035)"/><path class="a" d="M18.7,32.988l-7.016-4.051V24.21l4.094-2.364,4.969,2.869,5.843-3.373v-9.11a5.859,5.859,0,0,0-2.922-5.06L11.249,0,9.5,1.01,22.8,8.685a4.106,4.106,0,0,1,2.047,3.546v8.1L20.749,22.7l-4.094-2.364V14.6l-5.843-3.373-7.89,4.555A5.86,5.86,0,0,0,0,20.837V35.179l1.749,1.01V20.837A4.105,4.105,0,0,1,3.8,17.291l7.015-4.051L14.905,15.6v4.727L9.937,23.2v6.747l7.89,4.555a5.859,5.859,0,0,0,5.843,0l12.421-7.171V25.312L22.8,32.988A4.106,4.106,0,0,1,18.7,32.988Z"/><path class="a" d="M18.244,11.795l11.11,6.414A4.106,4.106,0,0,1,31.4,21.754v4.354L33.15,25.1V21.754a5.859,5.859,0,0,0-2.922-5.06L17.807,9.523,16.5,10.28v8.233l1.749-1.01V11.795Z" transform="translate(-11.527 -6.655)"/><path class="a" d="M18.245,75.911V63.083a4.105,4.105,0,0,1,2.047-3.546l3.771-2.177-1.749-1.01-2.9,1.673a5.859,5.859,0,0,0-2.922,5.06V77.425l1.312.757,7.13-4.117-1.749-1.01Z" transform="translate(-11.527 -39.377)"/><g transform="translate(0 43.713)"><path class="b" d="M4.576,145.469a.116.116,0,0,1,.128.127v.7a.114.114,0,0,1-.128.119H2.867v5.01c0,.085-.042.128-.119.128H1.965c-.077,0-.119-.042-.119-.128v-5.01H.127A.114.114,0,0,1,0,146.294v-.7a.116.116,0,0,1,.127-.127Z" transform="translate(0 -145.367)"/><path class="b" d="M25.01,150.616h2.731c.085,0,.127.042.127.119v.689a.113.113,0,0,1-.127.128H24.1c-.077,0-.119-.042-.119-.128V145.6c0-.085.042-.127.119-.127h3.522a.113.113,0,0,1,.128.127v.689c0,.076-.042.119-.128.119H25.01V148H27.4a.113.113,0,0,1,.128.128v.68a.113.113,0,0,1-.128.128H25.01Z" transform="translate(-16.758 -145.367)"/><path class="b" d="M47.936,151.417a2.1,2.1,0,0,1-2.348-2.169v-1.94a2.11,2.11,0,0,1,2.331-2.178,3.23,3.23,0,0,1,1.82.57.114.114,0,0,1,.026.17l-.4.578c-.042.077-.1.077-.179.034a2.255,2.255,0,0,0-1.267-.383,1.156,1.156,0,0,0-1.3,1.217v1.905a1.161,1.161,0,0,0,1.31,1.225A2.479,2.479,0,0,0,49.339,150a.1.1,0,0,1,.17.034l.4.578a.123.123,0,0,1-.017.179A3.211,3.211,0,0,1,47.936,151.417Z" transform="translate(-31.857 -145.13)"/><path class="b" d="M71.692,145.6c0-.085.042-.127.119-.127h.783c.077,0,.119.042.119.127v5.827c0,.085-.042.128-.119.128h-.783c-.077,0-.119-.042-.119-.128v-2.475h-2.4v2.475c0,.085-.042.128-.119.128h-.783c-.077,0-.119-.042-.119-.128V145.6c0-.085.042-.127.119-.127h.783c.077,0,.119.042.119.127V148h2.4Z" transform="translate(-47.708 -145.367)"/><path class="b" d="M92.981,151.551c-.076,0-.119-.042-.119-.128V145.6c0-.085.042-.127.119-.127h.859a.179.179,0,0,1,.153.085l1.659,2.892c.289.511.612,1.08.851,1.54l.026-.008c-.051-.723-.076-1.591-.076-2.305V145.6a.113.113,0,0,1,.128-.127h.765a.113.113,0,0,1,.128.127v5.827a.113.113,0,0,1-.128.128h-.859a.158.158,0,0,1-.145-.085L94.733,148.8c-.315-.511-.672-1.174-.91-1.676l-.026.008c.042.732.076,1.617.076,2.339v1.948c0,.085-.042.128-.119.128h-.774Z" transform="translate(-64.892 -145.367)"/><path class="b" d="M119.363,151.417a2.177,2.177,0,0,1-2.39-2.365v-1.565a2.391,2.391,0,0,1,4.781,0v1.565A2.177,2.177,0,0,1,119.363,151.417Zm0-.97a1.224,1.224,0,0,0,1.344-1.4V147.5a1.345,1.345,0,1,0-2.688,0v1.557A1.224,1.224,0,0,0,119.363,150.447Z" transform="translate(-81.741 -145.13)"/><path class="b" d="M142,151.551c-.077,0-.119-.042-.119-.128V145.6c0-.085.042-.127.119-.127h.791c.077,0,.119.042.119.127v5.01h2.5c.085,0,.128.042.128.119v.7a.113.113,0,0,1-.128.128Z" transform="translate(-99.147 -145.367)"/><path class="b" d="M162.966,151.417a2.177,2.177,0,0,1-2.39-2.365v-1.565a2.391,2.391,0,0,1,4.781,0v1.565A2.177,2.177,0,0,1,162.966,151.417Zm0-.97a1.224,1.224,0,0,0,1.344-1.4V147.5a1.345,1.345,0,1,0-2.688,0v1.557A1.224,1.224,0,0,0,162.966,150.447Z" transform="translate(-112.21 -145.13)"/><path class="b" d="M187.335,151.417a2.144,2.144,0,0,1-2.373-2.178V147.3a2.1,2.1,0,0,1,2.314-2.169,3.96,3.96,0,0,1,2.042.57.117.117,0,0,1,.042.178l-.425.587c-.042.068-.1.068-.17.034a2.875,2.875,0,0,0-1.5-.4,1.149,1.149,0,0,0-1.276,1.225v1.905a1.191,1.191,0,0,0,1.344,1.217,2,2,0,0,0,1.191-.357V148.8h-1.14c-.077,0-.119-.042-.119-.128V148c0-.085.042-.127.119-.127h2.025c.077,0,.119.042.119.127v2.39c0,.068-.009.111-.042.136A2.9,2.9,0,0,1,187.335,151.417Z" transform="translate(-129.251 -145.13)"/><path class="b" d="M210.916,151.423c0,.085-.042.128-.119.128h-.783c-.077,0-.119-.042-.119-.128V145.6c0-.085.042-.127.119-.127h.783c.077,0,.119.042.119.127Z" transform="translate(-146.674 -145.367)"/><path class="b" d="M225.41,150.616h2.73c.085,0,.128.042.128.119v.689a.113.113,0,0,1-.128.128H224.5c-.077,0-.119-.042-.119-.128V145.6c0-.085.042-.127.119-.127h3.522a.113.113,0,0,1,.128.127v.689c0,.076-.042.119-.128.119H225.41V148h2.39a.113.113,0,0,1,.127.128v.68a.113.113,0,0,1-.127.128h-2.39Z" transform="translate(-156.797 -145.367)"/><path class="b" d="M246.855,151.417a3.267,3.267,0,0,1-2.169-.817.125.125,0,0,1-.026-.179l.425-.6a.114.114,0,0,1,.17-.026,2.9,2.9,0,0,0,1.642.647c.621,0,1.234-.264,1.234-.842,0-.612-.638-.766-1.378-.919-.893-.187-2.067-.6-2.067-1.863,0-1.183,1.046-1.693,2.271-1.693a3.326,3.326,0,0,1,2,.672.111.111,0,0,1,.034.17l-.408.587c-.042.068-.11.068-.178.026a2.931,2.931,0,0,0-1.523-.493c-.732,0-1.157.289-1.157.749,0,.544.544.689,1.293.859,1,.221,2.169.544,2.169,1.889C249.186,150.863,248.1,151.417,246.855,151.417Z" transform="translate(-170.95 -145.13)"/></g><g transform="translate(34.604 21.408)"><path class="b" d="M122.2,71.077s0,7.435,0,10.6a3.53,3.53,0,0,1-3.767,3.492,5.011,5.011,0,0,1-2.032-.445h0l-1.516,1.949a7.475,7.475,0,0,0,3.548.916,5.917,5.917,0,0,0,6.186-5.912c0-2.742,0-9.2,0-9.2Z" transform="translate(-114.885 -71.077)"/><path class="b" d="M218.523,73.654h-2.551l-6.211,15.52h2.423l1.472-3.679H220.8l1.472,3.679H224.7Zm1.4,9.647h-5.392l2.7-6.837Z" transform="translate(-181.184 -72.878)"/><g transform="translate(13.662 0.545)"><path class="b" d="M173.319,86.921c-2.076,2.313-7.476,2.877-10.572-.03A8.5,8.5,0,0,1,162.6,75c3.08-3.023,8.456-2.557,10.763-.127L171.7,76.518c-3.33-2.661-8.465-1.195-8.95,3.649a5.525,5.525,0,0,0,2.612,5.665,5.71,5.71,0,0,0,6.343-.6Z" transform="translate(-160.244 -72.886)"/></g></g></svg>